<?xml version="1.0" encoding="UTF-8" standalone="no"?>
<!DOCTYPE svg PUBLIC "-//W3C//DTD SVG 1.1//EN" "http://www.w3.org/Graphics/SVG/1.1/DTD/svg11.dtd">
<svg width="100%" height="100%" viewBox="0 0 549 542" version="1.1" xmlns="http://www.w3.org/2000/svg" xmlns:xlink="http://www.w3.org/1999/xlink" xml:space="preserve" xmlns:serif="http://www.serif.com/" style="fill-rule:evenodd;clip-rule:evenodd;stroke-linejoin:round;stroke-miterlimit:2;">
    <g transform="matrix(6.12323e-17,-1,1,6.12323e-17,5.75635,544.432)">
        <path d="M368.9,473.9C290.8,488.4 212.7,502.8 134.7,517.3C124.7,519.2 113,520.5 105.6,513.5C100.7,508.8 99.2,501.5 98.1,494.8C75.9,366.8 53.8,238.8 31.6,110.8C30.1,101.8 28.8,91.6 34.3,84.3C39.4,77.7 48.4,75.8 56.6,74.4C132.1,61.4 207.5,48.4 282.9,35.4C286.4,34.8 290.5,34.4 292.9,36.9C294.4,38.5 294.9,40.8 295.3,42.9C319.8,186.6 344.3,330.3 368.9,473.9M88.6,307.7C94.8,315.7 99,325.2 100.8,335.1C101.7,339.5 100.2,345.9 95.7,345.3C100.9,346.4 105.1,351.1 105.7,356.3C108.9,358 112.1,359.7 115.2,361.4C115.5,363 114.7,364.7 113.3,365.6C121.2,368.1 128.7,372.1 135.2,377.3C133.9,378.3 132.5,379.3 131.2,380.3C133.9,381.8 136.8,382.7 139.9,383C132.5,384.6 124.9,385.3 117.4,385.3C125.4,390.7 136.7,390.8 144.7,385.4C146.2,382.7 143.6,379.6 141.8,377.1C140,374.5 140.2,369.5 143.4,369.7C144.6,373.3 145.9,376.8 147.1,380.4C149.7,378.4 154,379.5 155.4,382.5C153.5,383.8 151.7,385.1 149.9,386.3C155.2,387.5 160.5,381.1 158.4,376C158.5,377.6 157.3,379.2 155.8,379.5C155.6,371.5 155.5,363.6 155.4,355.6C155.4,353.2 158.9,350.3 159.1,352.8C158.3,356.1 157.6,359.5 156.9,362.8C162.6,365.3 166.1,371.9 165.1,378C172.8,373.2 182.5,371.8 191.2,374.2C191.3,377.5 196.3,379.3 198.4,376.8C195.6,376 193.6,373.3 193.4,370.5C202.7,370.7 212,371 221.3,371.2C218.5,370 216.1,368.1 214.2,365.7C216,365.3 217.9,364.9 219.7,364.5C223.3,361.7 226.8,358.9 230.4,356.1C231.7,355 233.1,353.6 232.8,352C232.5,350.4 229.3,350.5 229.8,352.1C236.5,349.5 243.7,348.4 250.9,348.8C248.3,348.6 245.8,348.4 243.3,348.2C244.9,350.1 247.5,346 245.6,344.4C243.7,342.8 240.9,343.6 238.5,344.4C236.1,345.1 232.9,345.4 231.6,343.3C238.1,343.4 244.5,342.6 250.7,340.9C252.2,340.6 254,339.7 254.1,338.2C254.1,336.6 250.9,336.7 251.6,338.1C254,337 256.4,335.9 258.8,334.8C255.8,334.5 252.9,334.3 249.9,334C255.5,332.6 261.2,331.5 267,330.8C265.9,329.2 264.9,327.5 263.8,325.9C265.3,323.4 266.8,320.8 268.3,318.3C270.5,319.9 273.1,320.7 275.8,320.6C277.8,319.9 279.8,319.3 281.8,318.6C277.7,318.5 273.5,318.4 269.4,318.3C270.8,315.9 270,312.5 267.7,311.1C270.4,311.4 272.3,308.1 272.3,305.3C275.8,305.2 279.3,305 282.9,304.8C280.2,304.6 277.5,304.4 274.8,304.3C275.1,301.7 272.4,299.3 269.9,299.9C273.2,299.6 276.5,299.2 279.8,298.8C277.9,298.5 275.9,298.2 274,297.9C278.3,291.3 281.5,284.1 283.5,276.5C284.2,273.8 282.6,269.3 280.2,270.8C282.6,272 285,269.3 286.2,267C291.7,256.3 293.9,243.8 292.3,231.8C292.9,229.3 293.5,226.7 294.1,224.2C295.1,219.9 297.5,214.7 301.8,215.1C299.8,214.8 298.4,212.6 298.9,210.6C301.3,212.3 305.1,211.2 306.1,208.5C302.6,207.6 303.6,202.5 305.2,199.4C306.8,196.2 307.2,190.9 303.7,190.6C303.1,192.5 302.4,194.4 301.7,196.3C300.6,192.6 301.5,188.4 304.2,185.6C297.6,180.9 296.8,170 302.6,164.3C302.5,162.7 302.5,161.1 302.4,159.5C300.8,121 294.5,82.7 283.6,45.8C281.7,48.9 281.3,52.9 282.6,56.3C276.7,45.7 261.5,46.1 249.4,47.9C201.8,55.1 154.2,62.2 106.5,69.4C109.9,69.3 113.3,69.2 116.7,69.1C92.6,73.5 68.6,78 44.5,82.4C46.8,83.7 49.1,85 51.3,86.4L37.4,86.4C34.1,89 35.6,95.4 39.8,96.1C38.1,96.3 36.4,96.6 34.7,96.8C36.5,103.7 36.8,111.1 35.5,118.2C37.4,120.7 40.7,122.1 43.8,121.6C42,122.1 40.3,122.5 38.5,122.9C40.3,141.5 44.4,159.9 50.6,177.5C51.3,179.4 49.3,182.6 48.5,180.7C50.1,181.9 51.8,183.1 53.4,184.3C53.1,182.8 51,184.7 51,186.2C50.9,189.1 50.7,192 50.6,194.9C52.1,195.2 53.5,195.5 54.9,195.8C55.1,197.5 53.4,199 51.8,198.7C52.5,200.3 54.1,201.6 55.8,201.7C53.8,202.4 52.5,204.8 53.1,206.8C55.1,207.1 57.1,207.3 59.1,207.6C53.8,208.7 53.5,216.3 55.8,221.1C58,226 61.5,231.3 59.5,236.3C61,236 62.4,235.8 63.8,235.6C62.5,237 61.1,238.4 59.8,239.8C62.2,240.2 64.5,240.5 66.8,240.8C64.3,241.3 61.8,241.7 59.3,242.2C62,246.6 64.6,251.1 67.2,255.6C66.7,256.3 66.2,256.9 65.7,257.6C68.4,264.6 68.8,272.4 66.9,279.6C70.2,278.7 73.4,277.8 76.6,276.8C79,278.4 81.7,280.2 82.3,283.1C82.8,285.9 79.3,289.2 77.1,287.3C79.4,291.2 81.8,295.1 84.1,298.9C82.5,303.1 79.9,307 76.6,310.1C78.3,312.3 78.4,315.6 76.8,317.9C78.7,318.2 80.6,318.5 82.5,318.7C78.8,316.2 82.4,309.1 86.5,310.6C83.9,310 82.5,306.2 84.2,304.1C85.7,305.3 87.2,306.5 88.6,307.7M311.8,240.7C314.1,236.3 313.9,230.6 311.3,226.4C311.4,225.1 309.7,224.1 308.7,224.8C309.4,223.9 310.2,222.9 310.9,222C309.9,221 308.4,220.5 307,220.7C307.5,222.7 304.3,224.3 303,222.7C305.3,225.3 307.5,227.8 309.8,230.4C308.9,230.9 309.3,232.6 310.3,232.6C308.8,237.4 309.5,243 312.3,247.3C313.1,246.8 313.9,246.3 314.6,245.8C315.1,243.8 313.8,241.5 311.8,240.7M119.5,451.6C118.7,452.5 118,453.3 117.2,454.1C114.1,452.3 109.5,453.3 107.4,456.2C105.5,455 102.9,454.9 100.8,455.8C100.6,457 102.1,457.5 103.2,457.6C108.1,458 113,458.4 117.9,458.7C118.8,456.5 119.4,454.1 119.5,451.6M84.6,371.5C87.6,370.4 90.7,369.4 93.7,368.4C91.7,368.7 89.6,369.1 87.6,368.4C85.7,367.7 84.1,365.6 84.8,363.7C85.8,360.6 85,357.1 82.8,354.8C80.8,360.5 81.1,367 83.8,372.4C84.5,373.6 86.3,374 87.5,373.1C86.5,372.6 85.6,372 84.6,371.5M127.7,431.1C126.8,428.5 129.8,425.5 132.4,426.3C134.4,426.9 136.5,426.9 138.4,426.2C136.5,423.8 133,422.6 130,423.4C127,424.1 124.6,426.8 124.1,429.9C125.3,430.3 126.5,430.7 127.7,431.1M137.4,411.6C131.8,411.4 126.3,412.3 121,414.1C122.1,414.2 122.9,415.7 122.4,416.7C125.8,416.1 129.3,415.5 132.8,414.9C134,414.7 135,412.6 133.8,412.8C135,412.4 136.2,412 137.4,411.6M89.5,339.9C89.1,338.1 88.6,336.2 88.2,334.4C88.3,335.9 87.3,337.4 85.9,338C86.9,337.9 87.9,338.9 87.8,340C86.6,339.1 84.8,339.2 83.6,340.1C86,341 88.4,341.9 90.7,342.8C90.8,340.2 90.9,337.5 90.9,334.9C91.5,333.9 91.4,337.3 92.5,337C92.8,336.9 92.9,336.4 92.9,336.1C92.9,334.7 92.8,333.3 92.8,331.9C92.2,331.1 90.9,331.1 90.3,331.8C90,334.5 89.8,337.2 89.5,339.9M118.5,443.3C118.8,442.6 119.1,442 119.4,441.3C116.7,441.4 114,441.4 111.3,441.4C111.7,442.3 112.8,442.9 113.8,442.6C113.2,443.3 112.2,443.6 111.4,443.3C110.9,444.1 110.7,445 110.9,446C113,445.9 115.2,445.2 117.1,444.1C117.4,445.7 118.3,447.2 119.5,448.3C120.5,446.8 120.4,444.8 119.3,443.4M183.4,399.3C182.9,399.9 183.3,401.1 184.1,401.2C184.9,401.3 185.6,400.3 185.2,399.6C185.5,400.7 186.7,401.4 187.8,401.1C187.3,400.2 186.8,399.2 186.3,398.3L182.2,398.3C182.2,397.1 182.1,395.9 182.1,394.7C181.3,394.2 180.3,394.1 179.4,394.4C178.3,396.4 177.7,398.6 177.8,400.9C178.9,401.4 180.2,401.6 181.4,401.2C181,400.6 180.7,400 180.3,399.4C181.3,399.4 182.3,399.4 183.3,399.3M254.4,363.8C253.7,364.4 253,362.7 253.8,362.2C254.5,361.8 255.5,362.1 256.4,362.4C257.3,362.6 258.5,362.6 258.8,361.7C254.9,361.2 251.1,360.8 247.3,360.3C246.8,361.5 246.6,362.8 246.9,364.1C251.2,364.1 255.5,364.1 259.9,364.2C258.2,363.2 256.2,362.9 254.4,363.4M97.8,416.1C101.9,416.2 106,416.2 110.1,416.3C110.5,415.3 110.9,414.3 111.3,413.3C107.7,412.9 104,413.1 100.5,413.9C99.6,414.6 98.7,415.4 97.8,416.1M84.8,381.7C89.3,381.2 93.9,381.2 98.4,381.7C96.2,382.1 94,382.6 91.8,383C95.2,382.8 98.7,383.4 101.7,385C101.9,383.3 101.4,381.6 100.3,380.3C95.3,380.6 90.2,380.4 85.1,379.9C85,380.5 84.9,381.1 84.8,381.7M235.3,351C237.9,353.7 242.4,354.5 245.7,352.7C244.8,352.4 243.8,352 242.8,351.7C245.5,351.5 248.2,351.2 250.9,350.9C245.8,349.9 240.5,350 235.3,351M88.6,328.7C90.2,329.3 91.7,329.9 93.3,330.5C93.8,329.5 94,328.4 93.9,327.4C89.2,326.8 84.5,326.9 79.9,327.8C82.6,328.9 85.4,329.8 88.2,330.3M194.4,388.4C193.9,389.3 193.4,390.1 192.9,391C198.9,391.7 205,391.6 210.9,390.8C205.6,390.5 200.2,390.2 194.8,389.9C197.8,389.5 200.9,389.2 203.9,388.8C200.7,388.2 197.5,388.1 194.4,388.4M183.8,386.6C181.4,386.8 178.9,385.9 177.3,384.2C176.8,386.3 176.3,388.5 175.8,390.6C178.8,390.1 181.7,389.1 184.3,387.6M313.4,262.3C312.9,263.1 312.5,263.9 312.1,264.7C313.5,265.9 314.4,267.8 314.4,269.7C317.1,266.3 317.3,261.2 315,257.5C314.7,259.2 314.4,260.9 314.1,262.6M100,445.7C101.7,447.8 103.9,449.5 106.4,450.5C105.7,447.1 103.4,444.1 100.3,442.5C99.5,443 98.7,443.4 97.8,443.8C98.5,444.5 99.2,445.2 99.8,445.8M90.2,406.1C89.8,409.8 90.1,413.6 91.3,417.2C92.4,416.4 93.6,415.5 94.8,414.7C93.9,414.5 92.9,414.2 92,414C93.2,411.3 92.5,407.9 90.2,406.1M291.4,301.5C292.5,301.3 293.7,301.2 294.9,301C291.5,299.5 287.3,300.2 284.6,302.7C284.4,303.5 284.2,304.3 283.9,305.1C285.4,304.8 286.9,304.9 288.3,305.4C288.5,304.2 288.8,303 289.1,301.8C289.8,301.6 290.6,301.4 291.3,301.2M307,176.7C306.2,173.5 305.4,170.3 304.6,167.2C303.4,169.5 303,172.2 303.3,174.8C304.1,175.5 305,176.1 305.9,176.8M193.8,400.9C196.3,401.4 198.8,401.5 201.3,401.3C202.3,400.8 198.8,400.8 199.3,399.8C199.4,399.6 199.7,399.5 199.9,399.5C201.9,399.3 203.9,399.1 205.9,398.9C202.1,398.2 198.2,398.1 194.3,398.4C194.8,399.3 195.9,399.8 196.9,399.7C195.9,400.1 194.9,400.5 193.8,400.9M204.3,374.2C203.5,374.4 202.6,374.5 201.8,374.7C203.4,374.7 203.3,377.3 202.6,378.8C203.9,379.6 205.6,379.6 206.8,378.9C206,378.5 205.1,378.1 204.2,377.7C207.1,377.5 210,377.2 212.9,376.9C210.8,376.7 208.9,375.7 207.5,374.2C207.9,375.1 207.2,376.3 206.2,376.4C205.3,376.5 204.4,375.4 204.6,374.5M170.5,385.5C169.6,385.9 168.8,386.3 168,386.7C170.7,388.3 172.5,391.2 172.8,394.4C173.4,393.3 174,392.2 174.5,391C173.3,389 172.1,387 170.9,385M257.4,368.5C259.9,368.3 262.4,368.2 264.9,368C263.5,367.6 262.2,367.2 260.9,366.8C261.8,366.5 262.6,366.2 263.5,365.9C260,365 256.3,365 252.8,365.9C255.2,366.2 257.5,366.5 259.9,366.7C258.2,366.8 255.8,367.7 256.3,369.3M143.3,399.3C140.9,399.4 138.4,399.5 136,399.5C138.8,400.4 141.7,401.2 144.7,400.8C147.6,400.4 150.5,398.4 151.1,395.5C148.9,397.5 146.3,398.9 143.5,399.8M160.2,404.6C157.8,403.5 154.9,403.3 152.4,404.1C154.9,405.4 157.6,406.6 160.3,407.6C161,406.7 161.1,405.3 160.4,404.3M140.3,408.3C141.9,408.6 143.5,408.4 144.9,407.7C140.9,407.1 136.9,407.1 133,407.7C134.5,410.1 137.9,411.1 140.4,409.9C138.9,409.6 137.4,409.2 135.8,408.9C137.3,408.3 138.8,408.1 140.3,408.3M237.8,354.8C242.5,355.6 247.1,356.5 251.8,357.3C250.2,356.8 248.5,356.2 246.9,355.7C247.8,355.4 248.6,355.1 249.5,354.8C245.7,354 241.7,354 237.8,354.8M227.9,380.8C228.7,381.5 230,381.6 230.9,380.9C228.6,377.9 224.1,377.1 220.9,379.1C221.7,378.5 222.7,379.1 223.4,379.7C224.1,380.4 224.7,381.2 225.6,381.2C226.6,381.3 227.3,379.7 226.4,379.5C226.9,379.8 227.5,380.1 228.1,380.4M291.9,313.7C294.2,313.8 296.6,314 299,314.1C297.1,312.8 295.2,311.5 293.4,310.2C293.3,311.8 291.1,312.7 289.9,311.6C289.6,312.7 290.7,313.8 291.8,313.6M92.3,390.4C92,389 91.7,387.7 91.4,386.4C90.4,387 89.5,387.5 88.6,388C89.5,389.6 90.1,391.3 90.3,393.1C91.7,393.7 93.3,391.5 92.3,390.3M160.7,388.9C160.2,388.2 159,389.4 159.5,390.2C159.9,391 161,391.1 161.9,391.2C162.8,391.2 163.9,391.4 164.3,392.3C165.5,392.2 166,390.5 165.3,389.5C164.6,388.5 163.3,388.2 162.1,387.9C162.1,388.6 161.4,389.2 160.7,389M240.8,373.9C241.9,374.4 243.2,374.6 244.4,374.2C244.1,373.7 243.7,373.1 243.3,372.5C245.2,372.3 247,372.1 248.9,371.8C244.9,371 240.8,371 236.8,371.8C238.3,372.2 239.8,372.6 241.3,372.9M225.3,395.3C224.2,395.6 222.9,395.4 221.8,394.9C223.1,394.5 224.5,394.2 225.8,393.8C225.9,392.6 224.9,391.4 223.7,391.4C223,393 221.5,394.2 219.8,394.5C220.9,396.5 223.8,397 225.6,395.7M72.6,284.9C72.8,287.3 77.3,287.3 77.5,284.9C76.4,284.1 75.4,283.3 74.3,282.5C73.2,282.6 72.2,283.9 72.5,285" style="fill-rule:nonzero;"/>
    </g>
    <g transform="matrix(6.12323e-17,-1,1,6.12323e-17,5.75635,544.432)">
        <path d="M130.4,339.6C132.1,337.8 134.8,340.5 135.9,342.8C134.5,343.3 132.9,343.8 131.5,343.3C130.2,342.7 129.5,340.5 130.8,339.8" style="fill-rule:nonzero;"/>
    </g>
    <g transform="matrix(6.12323e-17,-1,1,6.12323e-17,5.75635,544.432)">
        <path d="M136.9,358.7C139.1,359.1 140.5,361.7 139.8,363.8C139.2,364.4 138.2,364.6 137.5,364.2C137,363.1 136.4,362 135.9,360.9C135.7,360.4 135.4,359.7 135.7,359.2C136,358.7 137,358.9 136.9,359.4" style="fill-rule:nonzero;"/>
    </g>
    <g transform="matrix(6.12323e-17,-1,1,6.12323e-17,5.75635,544.432)">
        <path d="M431.8,395.4C430.4,392.3 430.2,388.6 431,385.3C432.7,388.1 433.4,391.6 432.8,394.8" style="fill-rule:nonzero;"/>
    </g>
    <g transform="matrix(6.12323e-17,-1,1,6.12323e-17,5.75635,544.432)">
        <path d="M92.9,276.8C93.9,277.5 94.8,278.2 95.8,279C94,278.6 92.4,280 90.6,280.4C88.8,280.8 86.7,278.2 88.4,277.4C89.5,278.8 92.1,278.4 92.7,276.8" style="fill-rule:nonzero;"/>
    </g>
    <g transform="matrix(6.12323e-17,-1,1,6.12323e-17,5.75635,544.432)">
        <path d="M105.8,307.8L105.8,312.9C105.4,312.4 104.8,311.9 104.2,311.9C103.6,311.9 103,312.8 103.5,313.2C102.3,310.7 102.2,307.8 103.2,305.2C103.6,306.4 104.6,307.4 105.9,307.8" style="fill-rule:nonzero;"/>
    </g>
    <g transform="matrix(6.12323e-17,-1,1,6.12323e-17,5.75635,544.432)">
        <path d="M98.7,296.8C95.6,298.3 91.7,298.4 88.5,296.9C90.9,294.9 94.2,294 97.3,294.3C97.8,295.1 98.3,295.9 98.7,296.8" style="fill-rule:nonzero;"/>
    </g>
    <g transform="matrix(6.12323e-17,-1,1,6.12323e-17,5.75635,544.432)">
        <path d="M99,274.5C98.3,271.9 102.2,270.9 104.8,271.1C102,272.9 100.3,276.1 100.4,279.4C100.1,277.7 99.7,276 99.4,274.3" style="fill-rule:nonzero;"/>
    </g>
    <g transform="matrix(6.12323e-17,-1,1,6.12323e-17,5.75635,544.432)">
        <path d="M64.2,190.5C65.6,191.7 66.1,193.7 65.5,195.4C64.4,194.1 63.3,192.8 62.3,191.4C61.5,192.6 59.2,192.2 59,190.8C60.6,189.7 62.7,189.5 64.5,190.1" style="fill-rule:nonzero;"/>
    </g>
    <g transform="matrix(6.12323e-17,-1,1,6.12323e-17,5.75635,544.432)">
        <path d="M296.8,135.4C299.9,137.2 299.6,142.7 296.4,144.1C294.1,141.6 294.2,137.4 296.6,135" style="fill-rule:nonzero;"/>
    </g>
    <g transform="matrix(6.12323e-17,-1,1,6.12323e-17,5.75635,544.432)">
        <path d="M173.9,343.6C174.7,343.9 173.4,344.9 172.6,344.6C169.6,343.5 167.2,340.9 166.4,337.8C167.4,337.6 168.5,337.4 169.6,337.3C169,339.4 171.7,341.5 173.6,340.5C173.7,341.6 173.8,342.7 173.9,343.8" style="fill-rule:nonzero;"/>
    </g>
    <g transform="matrix(6.12323e-17,-1,1,6.12323e-17,5.75635,544.432)">
        <path d="M105.9,325.9C107.6,324.7 110.2,325.1 111.5,326.7C111.3,327.6 111.1,328.6 110.3,329.2C109.6,329.8 108.2,329.4 108.1,328.5C107.9,330.5 107.6,332.4 107.3,334.4C107,331.5 106.7,328.7 106.4,325.8" style="fill-rule:nonzero;"/>
    </g>
    <g transform="matrix(6.12323e-17,-1,1,6.12323e-17,5.75635,544.432)">
        <path d="M500.1,250.5C503.2,253.7 504.9,258.1 504.8,262.5C504.7,263.3 504.3,264.4 503.5,264.3C501.5,260 500.3,255.3 500.1,250.5" style="fill-rule:nonzero;"/>
    </g>
    <g transform="matrix(6.12323e-17,-1,1,6.12323e-17,5.75635,544.432)">
        <path d="M72.3,207.3C70.8,207.6 69.2,207.4 67.8,206.8C71.5,206.1 75.3,206.1 78.9,206.8C77.9,207.1 76.9,207.5 75.9,207.9C76.6,207.2 77.5,208.8 76.8,209.4C76,210 74.9,209.7 74,209.3C73.1,208.9 72,208.7 71.3,209.3C71.7,208.7 72.1,208.1 72.5,207.4" style="fill-rule:nonzero;"/>
    </g>
    <g transform="matrix(6.12323e-17,-1,1,6.12323e-17,5.75635,544.432)">
        <path d="M74.8,240.9C80.2,239.9 85.9,239.9 91.4,241C85.9,241.6 80.3,241.5 74.8,240.9" style="fill-rule:nonzero;"/>
    </g>
    <g transform="matrix(6.12323e-17,-1,1,6.12323e-17,5.75635,544.432)">
        <path d="M73.8,228.9C79.2,227.9 84.9,227.9 90.4,229C84.9,229.6 79.3,229.5 73.8,228.9" style="fill-rule:nonzero;"/>
    </g>
    <g transform="matrix(6.12323e-17,-1,1,6.12323e-17,5.75635,544.432)">
        <path d="M90.9,242.9C85.2,243.7 79.5,243.7 73.8,242.8C79.5,242 85.2,242 90.9,242.9" style="fill-rule:nonzero;"/>
    </g>
    <g transform="matrix(6.12323e-17,-1,1,6.12323e-17,5.75635,544.432)">
        <path d="M280.9,56.8C274.9,57.7 268.8,57.7 262.8,56.9C268.8,56 274.9,56 280.9,56.8" style="fill-rule:nonzero;"/>
    </g>
    <g transform="matrix(6.12323e-17,-1,1,6.12323e-17,5.75635,544.432)">
        <path d="M104.5,318.5C103.9,320.3 100.5,319.4 100.9,317.6C105.1,317.4 109.4,317.2 113.7,317.1C112.5,318 111.2,318.9 110,319.8C107.9,320.6 104.7,320.7 104.5,318.5" style="fill-rule:nonzero;"/>
    </g>
    <g transform="matrix(6.12323e-17,-1,1,6.12323e-17,5.75635,544.432)">
        <path d="M60.8,218.8C67.1,218 73.6,218 79.9,218.8C73.6,219.7 67.1,219.7 60.8,218.8" style="fill-rule:nonzero;"/>
    </g>
    <g transform="matrix(6.12323e-17,-1,1,6.12323e-17,5.75635,544.432)">
        <path d="M269.5,290.4C272.1,288.9 275.4,288.8 278,290.1C275.4,290.6 272.8,291.2 270.2,291.7C267.7,291.4 265.3,291.1 262.8,290.9C264.9,290.8 267.6,290.2 267.9,288.1C268.4,288.9 269,289.6 269.5,290.4" style="fill-rule:nonzero;"/>
    </g>
    <g transform="matrix(6.12323e-17,-1,1,6.12323e-17,5.75635,544.432)">
        <path d="M509.7,283.9C512.5,287.3 514.1,291.5 514.3,295.9C514.4,297.5 514.3,299.2 513.3,300.5C512.1,294.9 510.9,289.4 509.7,283.9" style="fill-rule:nonzero;"/>
    </g>
    <g transform="matrix(6.12323e-17,-1,1,6.12323e-17,5.75635,544.432)">
        <path d="M505.6,272.4C505.3,271.2 505.1,269.9 505.3,268.7C505.4,267.9 505.7,267.2 506,266.5C508,272.5 509.4,278.6 510.2,284.8C508.1,280.9 506.5,276.7 505.6,272.4" style="fill-rule:nonzero;"/>
    </g>
    <g transform="matrix(6.12323e-17,-1,1,6.12323e-17,5.75635,544.432)">
        <path d="M291.1,111.6C291.8,110.4 293.4,112.1 293.8,113.4C294.7,116.9 295.5,120.4 296.4,123.8C297,126.3 297.6,128.9 296.7,131.3C296,131.9 294.7,131.4 294.3,130.5C293.8,129.6 294,128.6 294,127.6C294.5,122.1 293.5,116.6 291.1,111.6" style="fill-rule:nonzero;"/>
    </g>
    <g transform="matrix(6.12323e-17,-1,1,6.12323e-17,5.75635,544.432)">
        <path d="M131.8,349.8C135.6,349 139.5,349.3 143.1,350.7C144,354.4 151.3,351.2 152.8,354.7C149.2,356.3 144.8,355.9 141.5,353.7C138.8,354 136,353.9 133.4,353.3C132.9,352.1 132.3,350.9 131.8,349.8" style="fill-rule:nonzero;"/>
    </g>
    <g transform="matrix(6.12323e-17,-1,1,6.12323e-17,5.75635,544.432)">
        <path d="M297.5,152.8C295.8,150.8 295.4,147.8 296.5,145.5C299,146.4 300.6,149.4 299.7,152C300.5,151.5 301.2,151.1 301.9,150.7C302.3,152.3 300.5,154.1 298.8,153.7C300,155.7 300.7,158 300.9,160.3L297.4,160.3C296,158.1 296,155 297.5,152.8" style="fill-rule:nonzero;"/>
    </g>
    <g transform="matrix(6.12323e-17,-1,1,6.12323e-17,5.75635,544.432)">
        <path d="M529.4,446.4C530.2,447.1 530.8,448.1 531,449.2C526,451.4 521,453.5 516,455.7C513.4,456.2 510.8,456.7 508.2,457.2C507.4,456.3 507.9,454.7 508.8,454C509.8,453.2 511,453 512.2,452.8C518.3,451.7 524.1,449.5 529.4,446.4" style="fill-rule:nonzero;"/>
    </g>
    <g transform="matrix(6.12323e-17,-1,1,6.12323e-17,5.75635,544.432)">
        <path d="M111.9,338.8C112.5,339.2 113,338.1 112.9,337.3C112.6,335.3 112.3,333.3 112,331.3C117.8,334.2 121.8,340.5 121.8,347C120.8,347.1 119.7,347.2 118.7,347.3C118,347.4 117.2,347.6 117.2,348.3C116.8,345.9 116.7,343.4 116.8,341C115.2,340.3 113.5,339.6 111.9,338.8" style="fill-rule:nonzero;"/>
    </g>
    <g transform="matrix(6.12323e-17,-1,1,6.12323e-17,5.75635,544.432)">
        <path d="M83.9,226.9C79.9,227.6 75.8,227.6 71.8,226.9C72.7,226.5 73.6,226 74.4,225.6C69.6,225.4 64.8,225.3 60,225.2C60.9,223.6 62.6,222.4 64.4,222.2C63.3,223 65.2,224.4 66.6,224.4C71.5,224.4 76.5,224.4 81.4,224.3C80.9,225.3 79.9,225.8 78.8,225.8C80.5,226.2 82.2,226.5 83.9,226.9" style="fill-rule:nonzero;"/>
    </g>
    <g transform="matrix(6.12323e-17,-1,1,6.12323e-17,5.75635,544.432)">
        <path d="M466,138.3C465.2,135.3 464.3,132.4 463.5,129.4C463.1,127.8 462.8,125.7 464.2,124.7C469,138.3 472.6,152.3 475.1,166.5C471.3,157.4 468.7,147.8 466,138.3" style="fill-rule:nonzero;"/>
    </g>
    <g transform="matrix(6.12323e-17,-1,1,6.12323e-17,5.75635,544.432)">
        <path d="M539,439.9C539,439.2 538.9,438.6 538.9,437.9C545.7,431.4 546.8,420.8 545.1,411.5C543.4,402.3 539.4,393.6 537.3,384.4C536.9,382.6 537.5,379.9 539.3,380.3C541.6,388.8 543.9,397.3 546.3,405.7C547.6,410.2 548.9,414.8 548.9,419.5C549,427.3 545.2,435.1 539,439.9" style="fill-rule:nonzero;"/>
    </g>
    <g transform="matrix(6.12323e-17,-1,1,6.12323e-17,5.75635,544.432)">
        <path d="M327.3,145.3C324.2,126.3 321.2,107.2 318.2,88.2C339.8,104.5 361.4,120.8 383,137C385.1,138.6 387.3,140.3 388.9,142.5C391.2,145.8 391.9,149.9 392.6,153.9C395.5,172.1 398.5,190.2 401.4,208.4C379.6,192.4 357.9,176.2 336.3,159.8C333.6,157.8 330.9,155.7 329.4,152.8C328.1,150.5 327.7,147.9 327.3,145.3" style="fill-rule:nonzero;"/>
    </g>
    <g transform="matrix(6.12323e-17,-1,1,6.12323e-17,5.75635,544.432)">
        <path d="M350.1,277.6C346.9,258.5 343.7,239.3 340.4,220.1C363.3,237.2 386.2,254.3 409.1,271.4C412.9,274.1 413.9,279.2 414.7,283.7C418.1,303.3 421.5,322.8 424.9,342.3C404,325.3 382.5,308.9 360.4,293.4C357.4,291.2 354.3,289 352.5,285.8C351.1,283.3 350.6,280.5 350.1,277.6" style="fill-rule:nonzero;"/>
    </g>
    <g transform="matrix(6.12323e-17,-1,1,6.12323e-17,5.75635,544.432)">
        <path d="M3,109.2C1.5,100.4 0,91.1 3.1,82.7C9.4,66 29.9,60.9 47.5,58.1C165.6,39 283.7,20 401.9,1C405.2,0.5 408.7,0 411.7,1.4C414.7,2.8 416.6,7 414.6,9.6C387.2,44.6 384.5,97 408.1,134.7C420,106.2 431,77.3 441.2,48.1C451.7,75 462.3,104.1 455,132C451.1,146.8 442.5,159.8 436.1,173.6C429.7,187.5 425.3,203.5 430.5,217.9C435.9,232.8 440,248.3 442.8,263.9C460.2,234 472.1,200.9 477.7,166.8C479.7,184.5 487.5,200.9 492.2,218.1C496.9,235.2 498.1,254.9 488.1,269.6C464,304.9 461.7,353.9 482.5,391.3C495.4,361.8 506.6,331.6 515.9,300.8C521,318.3 526.1,335.8 531.1,353.2C533.5,361.5 535.9,370.4 532.7,378.4C523.1,402.8 513.5,427.1 503.9,451.5C502.1,456 499.6,461.1 494.8,461.6C488.7,462.4 485,455 483.3,449C447.6,325.3 411.9,201.6 376.2,77.9C374.1,70.5 367.7,65.4 361.6,60.7C348.3,50.6 335.1,40.5 321.8,30.3C318.2,27.5 314.4,24.7 310.1,23.3C303.9,21.2 297.1,22.2 290.6,23.2C210.6,36 130.6,48.7 50.6,61.4C37.2,63.5 21.9,67 15.6,79C11.1,87.5 12.7,97.7 14.3,107.1C37.4,238.8 60.4,370.5 83.5,502.2C85.1,511.5 87.2,521.6 94.3,527.7C103.7,535.8 117.8,533.9 130,531.6C234.1,511.5 338.2,491.3 442.4,471.2C424.5,458.1 406.6,445 388.8,431.9C383.5,428 378.1,424 374.9,418.3C372.3,413.5 371.5,408 370.7,402.7C368.4,386.7 366,370.6 363.7,354.6C382.1,367.8 400.6,381 419,394.2C441.1,410 443.7,441.2 444.2,468.4C444.3,470.2 444.3,472.1 443.3,473.6C442,475.7 439.3,476.3 436.9,476.8C334.4,496.5 231.9,516.1 129.4,535.7C112.4,539 91.9,541.1 80.7,528C74.9,521.3 73.2,512.1 71.6,503.4C48.8,372 25.9,240.6 3,109.2" style="fill-rule:nonzero;"/>
    </g>
</svg>
